HIERARCHY
ROOT Hips
{
	OFFSET 0.000000 0.000000 0.000000
	CHANNELS 6 Xposition Yposition Zposition Xrotation Yrotation Zrotation
	JOINT LeftUpLeg_virtual
	{
		OFFSET 0.000000 0.000000 0.000000
		CHANNELS 3 Xrotation Yrotation Zrotation
		JOINT LeftUpLeg
		{
			OFFSET 15.427100 -6.655098 0.678600
			CHANNELS 3 Xrotation Yrotation Zrotation
			JOINT LeftLeg
			{
				OFFSET 4.081073 -39.591068 13.024000
				CHANNELS 3 Xrotation Yrotation Zrotation
				JOINT LeftFoot
				{
					OFFSET -4.081074 -37.707932 -15.979700
					CHANNELS 3 Xrotation Yrotation Zrotation
					JOINT LeftToeBase
					{
						OFFSET 5.346399 -15.068900 20.645000
						CHANNELS 3 Xrotation Yrotation Zrotation
						JOINT LeftToe_End
						{
							OFFSET 2.754700 0.931300 11.300900
							CHANNELS 3 Xrotation Yrotation Zrotation
							End Site
							{
								OFFSET 0 0 0
							}
						}
					}
				}
			}
		}
	}
	JOINT RightUpLeg_virtual
	{
		OFFSET 0.000000 0.000000 0.000000
		CHANNELS 3 Xrotation Yrotation Zrotation
		JOINT RightUpLeg
		{
			OFFSET -15.569500 -6.655098 0.678600
			CHANNELS 3 Xrotation Yrotation Zrotation
			JOINT RightLeg
			{
				OFFSET -4.081825 -39.591045 13.023800
				CHANNELS 3 Xrotation Yrotation Zrotation
				JOINT RightFoot
				{
					OFFSET 4.081824 -37.707954 -15.979600
					CHANNELS 3 Xrotation Yrotation Zrotation
					JOINT RightToeBase
					{
						OFFSET -5.346400 -15.068900 20.645000
						CHANNELS 3 Xrotation Yrotation Zrotation
						JOINT RightToe_End
						{
							OFFSET -2.754700 0.931300 11.300900
							CHANNELS 3 Xrotation Yrotation Zrotation
							End Site
							{
								OFFSET 0 0 0
							}
						}
					}
				}
			}
		}
	}
	JOINT Spine_virtual
	{
		OFFSET 0.000000 0.000000 0.000000
		CHANNELS 3 Xrotation Yrotation Zrotation
		JOINT Spine
		{
			OFFSET -0.279200 12.230698 -2.892100
			CHANNELS 3 Xrotation Yrotation Zrotation
			JOINT Spine1
			{
				OFFSET -0.232667 10.192268 -1.242267
				CHANNELS 3 Xrotation Yrotation Zrotation
				JOINT Spine1_split
				{
					OFFSET -0.232667 10.192268 -1.242267
					CHANNELS 3 Xrotation Yrotation Zrotation
					JOINT Spine2
					{
						OFFSET -0.232667 10.192268 -1.242267
						CHANNELS 3 Xrotation Yrotation Zrotation
						JOINT Neck_virtual
						{
							OFFSET 0.000000 0.000000 0.000000
							CHANNELS 3 Xrotation Yrotation Zrotation
							JOINT Neck
							{
								OFFSET -0.418800 17.814194 8.416900
								CHANNELS 3 Xrotation Yrotation Zrotation
								JOINT Head
								{
									OFFSET 0.000000 7.031097 3.806800
									CHANNELS 3 Xrotation Yrotation Zrotation
									JOINT HeadTop_End
									{
										OFFSET 0.000000 24.646606 12.978600
										CHANNELS 3 Xrotation Yrotation Zrotation
										End Site
										{
											OFFSET 0 0 0
										}
									}
								}
							}
						}
						JOINT LeftShoulder_virtual
						{
							OFFSET 0.000000 0.000000 0.000000
							CHANNELS 3 Xrotation Yrotation Zrotation
							JOINT LeftShoulder
							{
								OFFSET 8.476499 7.247704 -3.868750
								CHANNELS 3 Xrotation Yrotation Zrotation
								JOINT LeftShoulder_split
								{
									OFFSET 8.476499 7.247704 -3.868750
									CHANNELS 3 Xrotation Yrotation Zrotation
									JOINT LeftArm
									{
										OFFSET 9.308998 -2.777710 0.208600
										CHANNELS 3 Xrotation Yrotation Zrotation
										JOINT LeftForeArm
										{
											OFFSET 29.972298 0.000000 0.000000
											CHANNELS 3 Xrotation Yrotation Zrotation
											JOINT LeftHand
											{
												OFFSET 26.026505 0.000000 0.000000
												CHANNELS 3 Xrotation Yrotation Zrotation
												End Site
												{
													OFFSET 0 0 0
												}
											}
										}
									}
								}
							}
						}
						JOINT RightShoulder_virtual
						{
							OFFSET 0.000000 0.000000 0.000000
							CHANNELS 3 Xrotation Yrotation Zrotation
							JOINT RightShoulder
							{
								OFFSET -7.570500 7.247704 -3.868750
								CHANNELS 3 Xrotation Yrotation Zrotation
								JOINT RightShoulder_split
								{
									OFFSET -7.570500 7.247704 -3.868750
									CHANNELS 3 Xrotation Yrotation Zrotation
									JOINT RightArm
									{
										OFFSET -9.308998 -2.777710 0.208500
										CHANNELS 3 Xrotation Yrotation Zrotation
										JOINT RightForeArm
										{
											OFFSET -29.972300 0.000000 0.000000
											CHANNELS 3 Xrotation Yrotation Zrotation
											JOINT RightHand
											{
												OFFSET -26.026505 0.000000 0.000000
												CHANNELS 3 Xrotation Yrotation Zrotation
												End Site
												{
													OFFSET 0 0 0
												}
											}
										}
									}
								}
							}
						}
					}
				}
			}
		}
	}
}
MOTION
Frames: 9
Frame Time: 0.03333333
2.005977 86.224144 -15.597202 0.000000 0.000000 0.000000 13.550501 -69.578386 15.698080 -20.015704 35.138967 28.723763 16.544988 -14.522500 -0.413032 -2.349481 10.183719 -20.463190 1.843399 -3.316775 -4.749674 0.000000 0.000000 0.000000 11.545958 -67.588123 13.815040 -22.816245 3.632249 -27.818587 17.942552 11.728084 2.873750 -0.568115 -2.708529 37.018498 9.507308 3.198258 -12.461964 0.000000 0.000000 0.000000 4.587850 -62.489305 8.580295 5.569036 -2.508530 -3.682906 5.686909 -7.349963 -0.338835 0.095301 0.310379 -0.060252 0.000000 0.000000 0.000000 2.533828 -4.326136 -0.221111 -8.786117 23.779841 2.285157 -18.003240 55.799978 -2.241890 0.000000 0.000000 0.000000 9.331608 -7.957335 0.647405 9.004818 4.132785 14.543197 -3.454901 -6.985577 3.078824 -42.531404 6.108406 5.121468 14.395834 -7.178969 7.971896 0.000000 0.000000 0.000000 6.564605 -6.286587 1.164236 -4.384453 13.814700 -17.417469 12.353710 -0.895326 11.505167 -49.752023 25.832455 41.942894 -175.210389 51.084767 171.553329 0.000000 0.000000 0.000000 
1.919901 86.237961 -15.610775 0.000000 0.000000 0.000000 13.461356 -69.474717 15.633369 -19.967124 35.035117 28.655686 16.454170 -14.568332 -0.421197 -2.283928 10.130866 -20.428688 1.855843 -3.312943 -4.698872 0.000000 0.000000 0.000000 11.472062 -67.481852 13.767232 -22.630261 3.606570 -27.835688 17.987967 11.674845 2.815718 -0.710074 -2.847326 37.095533 9.489608 3.249367 -12.432152 0.000000 0.000000 0.000000 4.558925 -62.404269 8.558194 5.534252 -2.568290 -3.740770 5.678891 -7.346942 -0.296351 0.094675 0.325711 -0.061986 0.000000 0.000000 0.000000 2.510040 -4.330660 -0.193592 -8.859475 23.878794 2.259722 -17.692512 55.785273 -2.492815 0.000000 0.000000 0.000000 9.355650 -7.963569 0.701257 8.953149 4.331866 14.555859 -3.468253 -6.963594 3.103093 -42.506426 5.992427 4.842780 14.428763 -7.211018 7.993362 0.000000 0.000000 0.000000 6.566893 -6.288041 1.208314 -4.344729 13.746095 -17.358895 12.351790 -0.860287 11.529587 -49.291354 25.309843 41.768448 -175.253024 50.887949 171.495573 0.000000 0.000000 0.000000 
1.835266 86.249763 -15.624367 0.000000 0.000000 0.000000 13.373038 -69.386485 15.570082 -19.920607 34.946871 28.600582 16.374036 -14.600943 -0.430245 -2.230078 10.081419 -20.381112 1.868877 -3.309367 -4.646841 0.000000 0.000000 0.000000 11.390909 -67.382418 13.712682 -22.446599 3.585475 -27.853821 18.030043 11.625588 2.762921 -0.842762 -2.977475 37.177966 9.457777 3.299829 -12.408873 0.000000 0.000000 0.000000 4.507854 -62.327225 8.525357 5.506473 -2.624723 -3.805901 5.668344 -7.337881 -0.250164 0.093498 0.341198 -0.063508 0.000000 0.000000 0.000000 2.487889 -4.329227 -0.165654 -8.936416 23.963007 2.239970 -17.346736 55.786796 -2.780225 0.000000 0.000000 0.000000 9.381063 -7.965845 0.761298 8.896432 4.501841 14.559185 -3.467276 -6.925647 3.137957 -42.480935 5.901571 4.573285 14.459806 -7.236727 8.003653 0.000000 0.000000 0.000000 6.568796 -6.285552 1.253977 -4.303167 13.687086 -17.289726 12.359837 -0.814014 11.553922 -48.832721 24.773024 41.590193 -175.280262 50.687227 171.420837 0.000000 0.000000 0.000000 
1.751704 86.257141 -15.638744 0.000000 0.000000 0.000000 13.287424 -69.317206 15.511611 -19.875190 34.875120 28.558392 16.305077 -14.620139 -0.442435 -2.191955 10.037557 -20.315943 1.888744 -3.306701 -4.591149 0.000000 0.000000 0.000000 11.300485 -67.290436 13.651609 -22.267006 3.568820 -27.873063 18.074820 11.581279 2.714456 -0.967884 -3.101942 37.268569 9.407867 3.350225 -12.393049 0.000000 0.000000 0.000000 4.435566 -62.257823 8.482623 5.489087 -2.676064 -3.876954 5.655248 -7.324747 -0.200921 0.092610 0.355761 -0.065143 0.000000 0.000000 0.000000 2.468040 -4.323680 -0.136958 -9.010672 24.033868 2.228268 -16.978582 55.805781 -3.096853 0.000000 0.000000 0.000000 9.405370 -7.965249 0.826682 8.837207 4.635345 14.553962 -3.442097 -6.879180 3.178660 -42.452604 5.848983 4.328833 14.481603 -7.267308 8.000314 0.000000 0.000000 0.000000 6.569365 -6.281401 1.300831 -4.259349 13.640657 -17.207550 12.375606 -0.758442 11.573028 -48.380194 24.227753 41.411290 -175.295917 50.488987 171.334735 0.000000 0.000000 0.000000 
1.669428 86.258316 -15.653522 0.000000 0.000000 0.000000 13.201584 -69.262995 15.457258 -19.835160 34.811804 28.530942 16.249010 -14.637439 -0.459597 -2.164409 9.993608 -20.247244 1.913965 -3.304986 -4.532322 0.000000 0.000000 0.000000 11.202219 -67.203652 13.585714 -22.092303 3.560234 -27.892017 18.128763 11.539762 2.668760 -1.091098 -3.227736 37.360735 9.349593 3.399679 -12.383080 0.000000 0.000000 0.000000 4.344913 -62.194241 8.432158 5.483749 -2.721473 -3.952328 5.639494 -7.311204 -0.149090 0.092421 0.369043 -0.066542 0.000000 0.000000 0.000000 2.451982 -4.316896 -0.106542 -9.077216 24.092625 2.228808 -16.605517 55.847704 -3.432664 0.000000 0.000000 0.000000 9.426435 -7.963630 0.896339 8.778574 4.729394 14.544394 -3.392079 -6.833214 3.219498 -42.419464 5.843285 4.119943 14.490776 -7.311228 7.984788 0.000000 0.000000 0.000000 6.566909 -6.278273 1.348470 -4.214065 13.606578 -17.110768 12.397225 -0.696965 11.578842 -47.939305 23.682481 41.236622 -175.305589 50.302052 171.245273 0.000000 0.000000 0.000000 
1.588238 86.253029 -15.668919 0.000000 0.000000 0.000000 13.107621 -69.215013 15.399148 -19.799591 34.748669 28.513948 16.203106 -14.658119 -0.480348 -2.142586 9.943684 -20.182217 1.931125 -3.304140 -4.469572 0.000000 0.000000 0.000000 11.095730 -67.116185 13.514001 -21.921982 3.564408 -27.908981 18.194770 11.498676 2.624507 -1.218472 -3.359808 37.446164 9.295412 3.447065 -12.375882 0.000000 0.000000 0.000000 4.239560 -62.133268 8.374748 5.490512 -2.761109 -4.029353 5.621232 -7.300523 -0.095674 0.092437 0.380128 -0.067105 0.000000 0.000000 0.000000 2.441769 -4.312469 -0.073920 -9.131825 24.141620 2.245071 -16.247681 55.915224 -3.773662 0.000000 0.000000 0.000000 9.441230 -7.963171 0.968134 8.723472 4.784019 14.538736 -3.307070 -6.787627 3.254622 -42.383199 5.885233 3.954199 14.487277 -7.366902 7.959230 0.000000 0.000000 0.000000 6.559724 -6.279536 1.396166 -4.168814 13.583985 -16.999957 12.425489 -0.627273 11.567253 -47.514156 23.145008 41.070768 -175.315247 50.138175 171.161795 0.000000 0.000000 0.000000 
1.508174 86.242142 -15.685570 0.000000 0.000000 0.000000 13.002065 -69.165296 15.332528 -19.769359 34.678260 28.502410 16.165876 -14.684541 -0.502722 -2.116253 9.885339 -20.129592 1.936612 -3.303058 -4.410503 0.000000 0.000000 0.000000 10.983082 -67.024933 13.436624 -21.756198 3.584505 -27.923926 18.273768 11.456111 2.580697 -1.348041 -3.498536 37.519578 9.247730 3.492160 -12.367557 0.000000 0.000000 0.000000 4.124426 -62.075601 8.312894 5.509406 -2.795341 -4.103783 5.599918 -7.295881 -0.043746 0.092051 0.388406 -0.067143 0.000000 0.000000 0.000000 2.437479 -4.313688 -0.039839 -9.172065 24.182920 2.279455 -15.927532 56.011236 -4.100974 0.000000 0.000000 0.000000 9.448507 -7.966697 1.037533 8.675954 4.801064 14.545757 -3.190015 -6.744090 3.278590 -42.348979 5.970777 3.835338 14.470661 -7.414530 7.925260 0.000000 0.000000 0.000000 6.547054 -6.288686 1.441693 -4.125522 13.570479 -16.875975 12.460541 -0.555776 11.533031 -47.101408 22.628856 40.919055 -175.332527 50.010133 171.096676 0.000000 0.000000 0.000000 
1.430535 86.227417 -15.699966 0.000000 0.000000 0.000000 12.889291 -69.111440 15.259723 -19.745471 34.602237 28.494062 16.135470 -14.715368 -0.525958 -2.080296 9.819205 -20.088271 1.925109 -3.301082 -4.359543 0.000000 0.000000 0.000000 10.870721 -66.936086 13.359319 -21.598976 3.619424 -27.937731 18.363788 11.412713 2.536706 -1.472307 -3.639677 37.581675 9.202142 3.535162 -12.355548 0.000000 0.000000 0.000000 4.001237 -62.018596 8.248861 5.538452 -2.824806 -4.171405 5.575662 -7.299844 0.002338 0.090812 0.392858 -0.066814 0.000000 0.000000 0.000000 2.438970 -4.323386 -0.006572 -9.196849 24.219021 2.332389 -15.668263 56.135590 -4.393351 0.000000 0.000000 0.000000 9.447276 -7.976186 1.099076 8.639424 4.784680 14.572489 -3.038762 -6.702875 3.287520 -42.320395 6.096459 3.765116 14.437647 -7.435764 7.883567 0.000000 0.000000 0.000000 6.528176 -6.308231 1.481262 -4.086152 13.564540 -16.742266 12.506502 -0.474528 11.484421 -46.701388 22.147911 40.783886 -175.364069 49.927050 171.061036 0.000000 0.000000 0.000000 
1.356489 86.210808 -15.713524 0.000000 0.000000 0.000000 12.779047 -69.055460 15.188548 -19.724521 34.530479 28.482724 16.107377 -14.742332 -0.548559 -2.036132 9.750374 -20.044324 1.898713 -3.298464 -4.318284 0.000000 0.000000 0.000000 10.762537 -66.858256 13.287695 -21.454695 3.665459 -27.952153 18.457808 11.371417 2.492475 -1.585608 -3.776613 37.637938 9.155923 3.575962 -12.339083 0.000000 0.000000 0.000000 3.876350 -61.961571 8.188196 5.576898 -2.849480 -4.226883 5.548380 -7.313349 0.037908 0.089583 0.394052 -0.067339 0.000000 0.000000 0.000000 2.444595 -4.342917 0.022502 -9.202783 24.250370 2.399728 -15.488045 56.286073 -4.629208 0.000000 0.000000 0.000000 9.437126 -7.992331 1.147051 8.616934 4.742058 14.621055 -2.865325 -6.670636 3.279926 -42.300591 6.254966 3.742524 14.384798 -7.425144 7.836751 0.000000 0.000000 0.000000 6.503908 -6.338641 1.510509 -4.052804 13.563633 -16.603485 12.559757 -0.384658 11.410580 -46.312934 21.713692 40.662575 -175.415691 49.891875 171.065557 0.000000 0.000000 0.000000 
